PathFileType	4	(X/Y/Z)	Run_400 02
DataRate	CameraRate	NumFrames	NumMarkers	Units	OrigDataRate	OrigDataStartFrame	OrigNumFrames
100	100	4	42	mm	100	139	128
Frame#	Time	LASI			RASI			LPSI			RPSI			RTH1			RTH3			LTH1			LTH2			LTH3			RTB1			RTB2			LTB1			LTB2			RCAL			RTOE			LCAL			LTOE			LACR			RACR			CLAV			C7			RUA1			RUA2			RUA3			RLEL			RMEL			LUA1			LUA2			LUA3			LLEL			LMEL			RFAsuperior			RFAradius			RFAulna			LFAsuperior			LFAradius			LFAulna			RTH2			RTB3			RMT5			LMT5			LTB3		
		X1	Y1	Z1	X2	Y2	Z2	X3	Y3	Z3	X4	Y4	Z4	X5	Y5	Z5	X6	Y6	Z6	X7	Y7	Z7	X8	Y8	Z8	X9	Y9	Z9	X10	Y10	Z10	X11	Y11	Z11	X12	Y12	Z12	X13	Y13	Z13	X14	Y14	Z14	X15	Y15	Z15	X16	Y16	Z16	X17	Y17	Z17	X18	Y18	Z18	X19	Y19	Z19	X20	Y20	Z20	X21	Y21	Z21	X22	Y22	Z22	X23	Y23	Z23	X24	Y24	Z24	X25	Y25	Z25	X26	Y26	Z26	X27	Y27	Z27	X28	Y28	Z28	X29	Y29	Z29	X30	Y30	Z30	X31	Y31	Z31	X32	Y32	Z32	X33	Y33	Z33	X34	Y34	Z34	X35	Y35	Z35	X36	Y36	Z36	X37	Y37	Z37	X38	Y38	Z38	X39	Y39	Z39	X40	Y40	Z40	X41	Y41	Z41	X42	Y42	Z42	

139	  1.390000	775.480721	1013.309854	-454.484000	787.374430	1048.869799	-209.135699	611.426297	1116.509372	-366.839353	610.014948	1116.395588	-281.702937	775.232851	937.092652	-140.948030	890.573387	729.609253	-168.290516	667.137289	911.793185	-507.912395	681.412314	780.216404	-488.945033	546.531528	689.353341	-469.471389	943.817219	504.068531	-230.446457	850.528639	439.775666	-182.543768	486.069253	460.634666	-409.120315	384.075179	438.547580	-461.245570	654.189867	276.821083	-267.515780	859.336383	166.825101	-255.668894	179.613086	289.809329	-347.343972	296.078276	 91.178542	-366.774384	808.990823	1542.572729	-485.698416	731.761221	1554.197264	-157.655125	829.518545	1506.668746	-282.883072	712.363153	1584.633713	-348.526298	631.153186	1488.498039	-88.345186	547.512812	1445.253552	-130.681886	549.147555	1411.162081	-56.662536	492.591770	1330.791702	-30.116267	466.926810	1319.965603	-110.101379	796.720930	1441.311693	-587.976937	732.191681	1359.007230	-599.244659	794.025296	1332.620643	-640.937483	812.333791	1249.681475	-674.929608	755.501439	1204.939821	-637.026056	531.916741	1258.901044	-28.367467	700.113475	1156.543214	-85.903431	646.402697	1109.927068	-75.534134	895.331975	1248.700221	-581.314134	933.124121	1318.622121	-445.403394	953.084705	1252.657757	-449.751256	894.946992	850.132041	-160.180551	829.650665	338.662089	-240.919483	814.889213	149.654634	-175.020043	230.930770	 91.940026	-431.000505	352.561426	304.827546	-394.120944	
140	  1.400000	777.003751	1017.226490	-453.828659	788.375150	1052.096146	-211.595320	614.214748	1122.291080	-368.612056	613.260719	1122.087055	-283.656240	774.628315	939.829314	-141.149805	887.129683	730.764248	-169.785098	666.592350	917.186191	-508.646151	679.658082	785.011664	-490.207077	544.120721	695.538237	-470.991325	954.811035	503.238377	-229.467810	869.069972	429.277228	-181.308822	476.042797	468.839110	-410.274416	373.697638	451.210905	-463.196212	691.550938	247.048220	-266.420662	905.918049	156.223418	-256.499891	162.258059	315.029508	-348.433211	266.158546	108.463132	-370.781926	810.670571	1548.416469	-482.205448	732.186051	1558.542812	-156.504641	830.400079	1511.408818	-280.645438	713.096273	1588.971764	-346.587200	630.408749	1495.493030	-87.371180	547.186694	1453.185025	-130.251053	547.195245	1419.585204	-55.717502	489.024360	1339.691182	-29.298160	464.050278	1328.958198	-109.562684	800.323227	1448.398936	-585.313267	735.450901	1366.538077	-598.349036	797.472994	1339.809504	-639.600275	816.148403	1256.534336	-673.919634	759.651202	1211.430668	-636.516382	528.343421	1268.099691	-27.031603	697.727780	1166.353247	-83.320828	644.280503	1119.466686	-73.866432	897.575445	1258.147817	-579.460104	932.168291	1329.509889	-443.087789	953.689721	1264.029118	-446.381717	893.139980	850.554667	-159.584333	859.320590	326.320040	-239.972866	863.329139	133.778651	-175.807871	199.916955	113.989422	-433.414916	334.545024	319.790937	-395.613255	
141	  1.410000	778.613778	1020.904559	-453.468319	788.762268	1054.192252	-212.786835	616.716754	1126.980138	-369.675941	615.523768	1126.695881	-284.921362	772.544566	939.681415	-140.574678	882.136320	729.234448	-171.863614	667.211238	921.915523	-508.744523	680.366593	788.902667	-490.660085	544.775149	699.767161	-472.958129	963.547038	501.174896	-228.568826	886.947568	418.137170	-179.982241	467.846755	475.884417	-411.559302	364.840580	463.871805	-464.724413	730.136190	218.903469	-265.406730	951.809606	147.783174	-257.821745	144.807288	342.012930	-349.011969	235.673251	129.441463	-371.669972	811.925161	1553.214013	-479.018528	732.927068	1561.809901	-154.827770	831.434536	1515.243222	-278.483296	713.784556	1592.208473	-344.431964	630.296854	1501.071840	-85.708396	547.233252	1458.790856	-129.552459	545.771522	1426.121458	-54.628751	486.330134	1346.691874	-28.228445	462.028885	1335.857824	-108.673638	803.392116	1454.483002	-583.049604	738.407406	1372.865452	-597.524777	800.286014	1345.858275	-638.504917	819.009545	1262.430958	-673.238329	762.645524	1217.139825	-636.270153	525.824817	1275.431038	-25.566579	696.265607	1174.228480	-80.826313	643.083260	1127.208885	-72.160154	899.224928	1265.497908	-578.128397	931.281662	1337.511918	-441.056905	953.272592	1272.489487	-442.293213	890.835244	849.206662	-158.416708	888.396236	314.686770	-239.182899	911.750216	119.876683	-176.822757	170.626527	139.580491	-434.955376	317.245902	335.742042	-396.244931	
142	  1.420000	780.291704	1024.255174	-453.127743	788.746953	1055.487542	-212.295155	619.037812	1130.495686	-369.874431	616.571647	1129.927907	-284.882327	770.131501	937.410655	-139.758869	876.382946	725.379659	-173.659379	669.289434	925.641761	-508.393078	682.950975	791.718945	-490.129124	547.498303	702.464469	-474.959301	969.586797	497.861764	-227.990150	903.797497	406.683335	-178.895166	461.441212	481.994219	-413.058703	357.787806	476.474027	-466.012464	769.019072	193.098934	-264.711266	995.960286	142.271110	-259.088659	129.321326	371.107716	-350.427987	205.750861	153.005335	-369.282373	812.704275	1556.975416	-476.181884	733.932982	1564.082458	-152.732751	832.435209	1518.311762	-276.371028	714.493045	1594.459390	-342.030991	630.674387	1504.942842	-83.668264	547.577918	1462.160087	-128.605473	544.906519	1430.748998	-53.431929	484.719429	1351.760290	-26.885205	460.952985	1340.526765	-107.465248	805.684829	1459.319042	-581.085711	740.656515	1377.813235	-596.702751	802.286058	1350.782651	-637.563764	820.895567	1267.372337	-672.754456	764.459488	1222.043112	-636.211737	524.468797	1280.797596	-23.934217	695.918256	1180.159150	-78.169697	642.835735	1132.987127	-70.311697	900.292169	1270.596600	-577.116354	930.735260	1342.288359	-439.168682	952.438480	1277.524893	-438.473043	888.836665	846.517011	-156.793306	916.007246	304.105059	-238.707060	959.245627	108.823035	-178.328744	143.117372	167.091623	-434.534235	301.432130	352.642440	-396.437048	
